inDegrees=yes
name=ik_lifting_orientations
DataType=double
version=3
OpenSimVersion=4.5-2024-01-10-34fd6af
endheader
time	pelvis_tilt	pelvis_list	pelvis_rotation	pelvis_tx	pelvis_ty	pelvis_tz	hip_flexion_r	hip_adduction_r	hip_rotation_r	knee_angle_r	knee_angle_r_beta	ankle_angle_r	subtalar_angle_r	mtp_angle_r	hip_flexion_l	hip_adduction_l	hip_rotation_l	knee_angle_l	knee_angle_l_beta	ankle_angle_l	subtalar_angle_l	mtp_angle_l	lumbar_extension	lumbar_bending	lumbar_rotation	arm_flex_r	arm_add_r	arm_rot_r	elbow_flex_r	pro_sup_r	wrist_flex_r	wrist_dev_r	arm_flex_l	arm_add_l	arm_rot_l	elbow_flex_l	pro_sup_l	wrist_flex_l	wrist_dev_l
0.02	0.01410893129562671	-0.002842842359756619	-90.03606961395072	0	0.9399999998679526	0	45.33172024672206	-10.76724623529332	0	59.80035813861146	1.043713143390558	-5.381540343532921	0	0	45.33172024672206	-10.76724623529332	0	59.80035813861146	1.043713143390558	-5.381540343532921	0	0	-0.005760183790407963	-0.01063728772256514	0.001586827777891346	-0.2881344765874947	-0.07763911306632378	-0.009918296168139384	0.6084457682507057	1.846335838997472	0	0	0	-12.16795321090121	0	88.19310240880743	1.846335838997472	0	0
0.03	0.0006082365966309346	6.146583846399163e-05	-90.02467942600953	0	0.9399999998679526	0	45.33164813991714	-10.76666616504057	0	59.8003923505614	1.043713740501728	-5.381164537152877	0	0	45.33164813991714	-10.76666616504057	0	59.8003923505614	1.043713740501728	-5.381164537152877	0	0	0.002984668146377185	0.004779282904083843	0.3381344075864847	-0.2802892058824614	-0.05753414060998166	-0.3473125104961428	0.523146087489521	1.846056088789514	0	0	0	-12.16826941927689	0	88.19337615274611	1.846056088789514	0	0
0.04	0.03889462919062733	0.03973070140938036	-90.01498680189063	0	0.9399999998679526	0	45.33155262720473	-10.76589711356329	0	59.80043761534645	1.043714530521262	-5.380666281969904	0	0	45.33155262720473	-10.76589711356329	0	59.80043761534645	1.043714530521262	-5.380666281969904	0	0	0.03734847986300846	-0.03610658341035185	0.7760472872252127	-0.2785295663709483	-0.05701395330754207	-0.7989008614824674	0.5222546095963218	1.845685675853985	0	0	0	-12.1686879597385	0	88.19373861286164	1.845685675853985	0	0
0.05	0.03877780631493102	0.03841790062777822	-90.01773886006875	0	0.9399999998679526	0	45.33146999501222	-10.76523287845404	0	59.80047680678889	1.043715214540971	-5.38023614785673	0	0	45.33146999501222	-10.76523287845404	0	59.80047680678889	1.043715214540971	-5.38023614785673	0	0	0.03808781994027673	-0.03604366172891059	1.21603160040638	-0.2809404443922272	-0.05566019890285683	-1.23963490748141	0.5220748892402002	1.845365097776584	0	0	0	-12.16905029475548	0	88.1940523080914	1.845365097776584	0	0
0.06	0.04656962842434868	0.04511845997883276	-90.03054544092582	0	0.9399999998679526	0	45.33139036972829	-10.76459390363679	0	59.80051460723445	1.043715874283205	-5.379822564682737	0	0	45.33139036972829	-10.76459390363679	0	59.80051460723445	1.043715874283205	-5.379822564682737	0	0	0.04650389692977313	-0.04207667106670258	1.666544531840292	-0.3050655013335719	-0.06877301530023323	-1.685274725415729	0.4931197875201626	1.845056058216438	0	0	0	-12.16939970398817	0	88.19435471254855	1.845056058216438	0	0
0.07000000000000001	0.0500726268090743	0.05062010077872681	-90.01170468451477	0	0.9399999998679526	0	45.33129415289731	-10.76382215509033	0	59.80056028071739	1.043716671435863	-5.379323162798747	0	0	45.33129415289731	-10.76382215509033	0	59.80056028071739	1.043716671435863	-5.379323162798747	0	0	0.0477508342227139	-0.04608713296087969	2.141565833030212	-0.2990561221245812	-0.08780421150930105	-2.210463869634578	0.5154038862382047	1.844682613046282	0	0	0	-12.16982193476494	0	88.19472013982396	1.844682613046282	0	0
0.08	0.05386478965838112	0.05389684193038545	-89.99033718171613	0	0.9399999998679526	0	45.33121057494604	-10.76315249472989	0	59.80059996818463	1.043717364112838	-5.378889982543775	0	0	45.33121057494604	-10.76315249472989	0	59.80059996818463	1.043717364112838	-5.378889982543775	0	0	0.05178372817078067	-0.04994461391848457	2.561124710909944	-0.2913934653449448	-0.09009605968644412	-2.667731850266122	0.5330824887161869	1.844358160062978	0	0	0	-12.17018882572102	0	88.19503762678431	1.844358160062978	0	0
0.09	0.01435970152548646	0.02808133626339752	-90.07189920564298	0	0.9399999998679526	0	45.32297292181785	-10.70506661818429	0	59.80452866883884	1.043785932874579	-5.343188163390153	0	0	45.32297292181785	-10.70506661818429	0	59.80452866883884	1.043785932874579	-5.343188163390153	0	0	0.04380236496768587	-0.007719052092124695	2.795995621369815	-0.3912892990419381	-0.0918104499770788	-2.822224386252457	0.6103807795810174	1.811897183115653	0	0	0	-12.20720511052632	0	88.22680172168411	1.811897183115653	0	0
0.1	0.02211368479394729	0.01754118476790961	-90.02811691718793	0	0.9399999998679526	0	45.31589250442127	-10.65697894377721	0	59.80791786026468	1.04384508542394	-5.314038598980993	0	0	45.31589250442127	-10.65697894377721	0	59.80791786026468	1.04384508542394	-5.314038598980993	0	0	0.01089736657500098	-0.02003059482811175	2.90912563728864	-0.2509221269661286	-0.08360136459315794	-2.976633918831733	0.4846522351873855	1.783853678920716	0	0	0	-12.23928458580209	0	88.25424319300117	1.783853678920716	0	0
0.11	0.03027057116020824	0.02262731319183088	-90.05929470554564	0	0.9399999998679526	0	45.30863064516862	-10.61020790532	0	59.81141194658162	1.04390606873452	-5.286239719315068	0	0	45.30863064516862	-10.61020790532	0	59.81141194658162	1.04390606873452	-5.286239719315068	0	0	0.01737059612268312	-0.02749620586789553	3.131529953622165	-0.2500605633168059	-0.09294705389979395	-3.196469203976934	0.5073085739298713	1.754882736302558	0	0	0	-12.27257345702787	0	88.28259221311008	1.754882736302558	0	0
0.12	0.0722797353883194	0.04636940365035398	-90.04902066503669	0	0.9399999998679526	0	45.30160224716521	-10.56716745343832	0	59.81481014514459	1.04396537848808	-5.261135138193048	0	0	45.30160224716521	-10.56716745343832	0	59.81481014514459	1.04396537848808	-5.261135138193048	0	0	0.0422419592571632	-0.0711175234385201	3.308902574182241	-0.2540207501301439	-0.09416455224979116	-3.405754460029836	0.506169195863048	1.726651204923905	0	0	0	-12.3051492472736	0	88.31021771296479	1.726651204923905	0	0
0.13	0.06926238231354039	0.06268937955151084	-90.0420873595442	0	0.9399999998679526	0	45.29455821634272	-10.52635239551967	0	59.81823432821906	1.044025141756921	-5.237811937851981	0	0	45.29455821634272	-10.52635239551967	0	59.81823432821906	1.044025141756921	-5.237811937851981	0	0	0.05787318868674608	-0.0665823545327773	3.494181238503066	-0.2572216485947113	-0.1009159505550512	-3.635964546188101	0.509667865344648	1.698142921139625	0	0	0	-12.33819766306024	0	88.33811404383405	1.698142921139625	0	0
0.14	0.07073770978378657	0.0544593860744815	-90.04249817682239	0	0.9399999998679526	0	45.27837365226137	-10.43734841670761	0	59.82614103263595	1.044163139781978	-5.187953861377276	0	0	45.27837365226137	-10.43734841670761	0	59.82614103263595	1.044163139781978	-5.187953861377276	0	0	0.03803119243468346	-0.07598490951948082	3.645230030736152	-0.287999161470436	-0.1059735971895925	-3.818847191377198	0.6616506260565005	1.632184200833302	0	0	0	-12.41498778378608	0	88.40265694558025	1.632184200833302	0	0
0.15	0.07241617178778581	0.07188769580621827	-90.00158880765203	0	0.9399999998679526	0	45.26643083699693	-10.37957665538132	0	59.83204557859936	1.044266193549874	-5.157171599247306	0	0	45.26643083699693	-10.37957665538132	0	59.83204557859936	1.044266193549874	-5.157171599247306	0	0	0.0655410513394209	-0.0686060340040132	3.779697899223704	-0.2411290689370774	-0.1072056101884215	-3.992171516894774	0.5375571542529656	1.582691038410913	0	0	0	-12.473200994812	0	88.45108779401365	1.582691038410913	0	0
0.16	0.07372485077087326	0.07372945049321455	-90.00212656830965	0	0.9399999998679526	0	45.26636457833182	-10.37924824164199	0	59.83207849639611	1.04426676807381	-5.156994387292986	0	0	45.26636457833182	-10.37924824164199	0	59.83207849639611	1.04426676807381	-5.156994387292986	0	0	0.06846465651367992	-0.06764220841205877	4.098897335094978	-0.2430251328749547	-0.1087081065685207	-4.310520828625497	0.5377890309564636	1.582416758917265	0	0	0	-12.47352361850093	0	88.45135618636314	1.582416758917265	0	0
0.17	0.07873681210736931	0.07587083484619564	-90.00143906847183	0	0.9399999998679526	0	45.25515891727259	-10.33037505215133	0	59.83767374941886	1.044364423661539	-5.131956097083151	0	0	45.25515891727259	-10.33037505215133	0	59.83767374941886	1.044364423661539	-5.131956097083151	0	0	0.07234639520964195	-0.07175920055184064	4.352108604921715	-0.2481993117811491	-0.1154976968289164	-4.594678575296426	0.5417209363932615	1.535331475452614	0	0	0	-12.5293774542944	0	88.49743088723031	1.535331475452614	0	0
0.18	0.08143118270496284	0.08114339347630084	-89.95798644102702	0	0.9399999998679526	0	45.25509422341144	-10.33008353486683	0	59.83770617799711	1.044364989647002	-5.131804349056881	0	0	45.25509422341144	-10.33008353486683	0	59.83770617799711	1.044364989647002	-5.131804349056881	0	0	0.0724002829487215	-0.07219021659147748	4.718724458505423	-0.2436782517231763	-0.1145113761932747	-5.00817535052708	0.5383497905666095	1.535060240671584	0	0	0	-12.52969899779077	0	88.49769630048253	1.535060240671584	0	0
0.19	0.0832702977325477	0.08037736281062641	-89.94749469509178	0	0.9399999998679526	0	45.25503809879129	-10.32983130892004	0	59.83773435698428	1.044365481463108	-5.131673143607321	0	0	45.25503809879129	-10.32983130892004	0	59.83773435698428	1.044365481463108	-5.131673143607321	0	0	0.07333036746549168	-0.07021358093172626	5.084611837804807	-0.2424873991033747	-0.1111098581542057	-5.393437123552127	0.5349366504835588	1.534824771565758	0	0	0	-12.5299782980023	0	88.49792671570972	1.534824771565758	0	0
0.2	0.1261011533563781	0.1260564463996748	-89.9250444451265	0	0.9399999998679526	0	45.25498663425407	-10.3295997199773	0	59.83776016481509	1.044365931894728	-5.131552649651042	0	0	45.25498663425407	-10.3295997199773	0	59.83776016481509	1.044365931894728	-5.131552649651042	0	0	0.1166801798584087	-0.1137403927662015	5.240474184154455	-0.2559165962818359	-0.1108117741095664	-5.563493917388294	0.5025545224599712	1.534608947989447	0	0	0	-12.53023420056017	0	88.49813790705488	1.534608947989447	0	0
